<svg xmlns="http://www.w3.org/2000/svg" viewBox="0 0 1080 1080"><defs><style>.cls-1{fill:#fff;}</style></defs><g id="Calque_2" data-name="Calque 2"><g id="Calque_1-2" data-name="Calque 1"><path class="cls-1" d="M243.86,434.9c53.43-146.19,115.41-315.77,298.58-315.77H878.37A537.79,537.79,0,0,0,540,0C241.77,0,0,241.77,0,540A537.48,537.48,0,0,0,94.3,845C144.94,706.07,225.3,485.68,243.86,434.9Z"/><path class="cls-1" d="M985.6,234.9c-10.53,29.11-20.34,56.43-36.71,100.75C882,516.8,774.8,542.58,611.77,542.58h-274c-12.46,33.84-17.9,48.34-44.52,120.81-43.46,118.34-96.6,266.31-96.6,266.31H402.12C548.46,929.7,593.68,881.91,639,758,666.28,683.27,688,624,688,624H843.31s-16.92,45.56-50.57,138.84c-65,180.36-171.58,198.08-334.61,198.08H201.63A537.79,537.79,0,0,0,540,1080c298.23,0,540-241.77,540-540A537.47,537.47,0,0,0,985.6,234.9Z"/><path class="cls-1" d="M376.72,436.27c-12.05,33-20.66,56.5-27.33,74.69H555.81c146.34,0,190-48.52,236.2-171.68,30-79.94,53.06-145,68.9-188.52H711C531.4,150.76,463.73,198.19,376.72,436.27Z"/></g></g></svg>